<svg width="43" height="43" viewBox="0 0 43 43" fill="none" xmlns="http://www.w3.org/2000/svg">
<path d="M23.2916 20.6042C23.2916 19.8914 23.5748 19.2078 24.0788 18.7038C24.5828 18.1998 25.2664 17.9167 25.9791 17.9167C26.6919 17.9167 27.3755 18.1998 27.8795 18.7038C28.3835 19.2078 28.6666 19.8914 28.6666 20.6042C28.6666 21.3169 28.3835 22.0005 27.8795 22.5045C27.3755 23.0085 26.6919 23.2917 25.9791 23.2917C25.2664 23.2917 24.5828 23.0085 24.0788 22.5045C23.5748 22.0005 23.2916 21.3169 23.2916 20.6042ZM19.952 23.4762C19.8312 23.2829 19.6632 23.1236 19.4639 23.0131C19.2645 22.9026 19.0404 22.8446 18.8125 22.8446C18.5846 22.8446 18.3604 22.9026 18.1611 23.0131C17.9617 23.1236 17.7938 23.2829 17.673 23.4762L13.1938 30.6429C13.0669 30.8463 12.9967 31.0799 12.9906 31.3195C12.9844 31.5592 13.0424 31.7961 13.1587 32.0058C13.2749 32.2154 13.4452 32.3902 13.6517 32.5119C13.8582 32.6336 14.0936 32.6978 14.3333 32.6979H28.6666C28.9162 32.6979 29.1608 32.6284 29.3731 32.4972C29.5854 32.366 29.7569 32.1783 29.8685 31.9551C29.9801 31.7319 30.0274 31.482 30.005 31.2335C29.9825 30.9849 29.8914 30.7475 29.7416 30.5479L27.0541 26.9646C26.929 26.7977 26.7667 26.6622 26.5801 26.5689C26.3935 26.4756 26.1878 26.4271 25.9791 26.4271C25.7705 26.4271 25.5648 26.4756 25.3782 26.5689C25.1916 26.6622 25.0293 26.7977 24.9041 26.9646L23.392 28.9802L19.952 23.4762Z" fill="#505050"/>
<path fill-rule="evenodd" clip-rule="evenodd" d="M12.5417 4.03125C11.235 4.03125 9.98174 4.55035 9.05773 5.47436C8.13373 6.39837 7.61462 7.65159 7.61462 8.95833V34.0417C7.61462 35.3484 8.13373 36.6016 9.05773 37.5256C9.98174 38.4496 11.235 38.9688 12.5417 38.9688H30.4584C31.7651 38.9688 33.0183 38.4496 33.9424 37.5256C34.8664 36.6016 35.3855 35.3484 35.3855 34.0417V14.276C35.3855 13.5934 35.1633 12.9305 34.7512 12.3858L29.3798 5.27646C29.0875 4.88967 28.7096 4.57592 28.2756 4.35986C27.8416 4.1438 27.3634 4.03132 26.8786 4.03125H12.5417ZM10.3021 8.95833C10.3021 7.72208 11.3055 6.71875 12.5417 6.71875H25.5313V14.5967C25.5313 15.3385 26.1333 15.9405 26.875 15.9405H32.698V34.0417C32.698 35.2779 31.6946 36.2812 30.4584 36.2812H12.5417C11.3055 36.2812 10.3021 35.2779 10.3021 34.0417V8.95833Z" fill="#505050"/>
</svg>
